<?xml version="1.0" encoding="UTF-8"?>
<svg version="1.1" xmlns="http://www.w3.org/2000/svg" width="200" height="200">
<path d="M0 0 C8.37932906 0.1782836 16.01894892 5.38143687 22 11 C25.33710192 15.33110263 25.4119864 19.28690084 25.34057617 24.55395508 C25.34123329 25.82789124 25.34123329 25.82789124 25.34190369 27.12756348 C25.33981941 29.92512272 25.31650546 32.72207714 25.29296875 35.51953125 C25.28737151 37.46294324 25.28310202 39.40635948 25.28010559 41.34977722 C25.26866691 46.45771022 25.23920802 51.56538614 25.20599365 56.67321777 C25.17527178 61.8882296 25.16159572 67.10328308 25.14648438 72.31835938 C25.11433748 82.54568568 25.06315283 92.77282144 25 103 C30.03303882 100.97784849 35.06427006 98.95128075 40.09399414 96.92089844 C41.79925334 96.23320848 43.50497007 95.54665176 45.21118164 94.86132812 C61.91931438 88.89069227 61.91931438 88.89069227 77.22143555 80.33154297 C79 79 79 79 81 79 C81.91692961 76.24921116 82.10886083 74.64051087 82.0625 71.8125 C82.041875 70.554375 82.02125 69.29625 82 68 C80.34385343 67.61781233 78.67542976 67.28604898 77 67 C76.67 67.33 76.34 67.66 76 68 C76.08378906 68.68449219 76.16757813 69.36898437 76.25390625 70.07421875 C76.59488384 72.96173784 76.6585983 75.15898774 76 78 C73.06744148 80.85585176 69.72954373 82.38492693 66 84 C65.23945312 84.350625 64.47890625 84.70125 63.6953125 85.0625 C60.0335217 86.61012479 57.76894704 87.20373859 54 86 C51.19855577 77.32780013 49.85643928 66.35280753 53.8359375 57.8359375 C59.01387628 49.66938976 64.79690409 44.67281604 74.25390625 42.4765625 C81.04220139 41.41404674 87.04358967 42.46266663 93.125 45.625 C99.34745059 50.76528527 105.05016739 56.66752417 106.29907227 64.99389648 C106.43747973 67.11019932 106.46770418 69.19197472 106.4375 71.3125 C106.42992676 72.05870605 106.42235352 72.80491211 106.41455078 73.57373047 C106.17076274 81.77532969 103.93682846 89.12619213 98.1027832 95.12866211 C87.38159378 104.66981118 74.08903367 109.63446066 60.9375 114.8125 C58.98357902 115.59285796 57.03021437 116.37461025 55.07739258 117.15771484 C52.14992005 118.33145424 49.22209129 119.5041652 46.29191589 120.67114258 C40.47233534 122.99157578 34.68385292 125.37219769 28.921875 127.83203125 C28.24689468 128.11873184 27.57191437 128.40543243 26.8764801 128.70082092 C23.80957741 130.00390715 20.74800029 131.31651538 17.69311523 132.64770508 C7.37004279 137.01808555 7.37004279 137.01808555 2 136 C-0.97686288 132.96161842 -1.37386735 130.72984005 -1.36749268 126.55244446 C-1.37306183 125.44613678 -1.37863098 124.3398291 -1.3843689 123.19999695 C-1.37515411 121.99100235 -1.36593933 120.78200775 -1.35644531 119.53637695 C-1.35848969 118.2596814 -1.36053406 116.98298584 -1.36264038 115.66760254 C-1.36777068 112.16983594 -1.35424836 108.67236396 -1.33711338 105.17464471 C-1.32207609 101.51692438 -1.32325144 97.85920785 -1.32244873 94.20146179 C-1.3187576 88.0622352 -1.30379518 81.92312051 -1.28125 75.78393555 C-1.25233709 67.89451606 -1.24202304 60.00518651 -1.2375679 52.1157198 C-1.23359376 45.34085794 -1.22109394 38.56601577 -1.20722103 31.79116797 C-1.20311662 29.60882407 -1.20019384 27.42648087 -1.19742584 25.2441349 C-1.1916399 21.18786728 -1.17697223 17.13168025 -1.16113281 13.07543945 C-1.16001495 11.86037216 -1.15889709 10.64530487 -1.15774536 9.39341736 C-1.15203522 8.29556915 -1.14632507 7.19772095 -1.14044189 6.06660461 C-1.13746723 5.10668263 -1.13449257 4.14676065 -1.13142776 3.15775013 C-1 1 -1 1 0 0 Z " fill="#1875D2" transform="translate(21,34)"/>
<path d="M0 0 C1.68165111 1.68165111 1.13329246 3.75948669 1.14044189 6.06660461 C1.14615204 7.16445282 1.15186218 8.26230103 1.15774536 9.39341736 C1.15942215 11.2160183 1.15942215 11.2160183 1.16113281 13.07543945 C1.16858017 14.98259735 1.16858017 14.98259735 1.17617798 16.92828369 C1.18932618 20.42631484 1.19575185 23.92432677 1.20018864 27.42237878 C1.20311601 29.60657719 1.20722022 31.7907703 1.21169281 33.97496605 C1.22537531 40.80507964 1.23503777 47.63518118 1.2388947 54.46530753 C1.24337477 62.35631367 1.26091702 70.24714653 1.2898953 78.13809997 C1.31150042 84.23240335 1.32159838 90.32665795 1.32293582 96.42099923 C1.32398488 100.06306018 1.32991353 103.70495842 1.34775543 107.34697914 C1.36727241 111.4102189 1.36295184 115.47309556 1.35644531 119.53637695 C1.3656601 120.74537155 1.37487488 121.95436615 1.3843689 123.19999695 C1.37879974 124.30630463 1.37323059 125.4126123 1.36749268 126.55244446 C1.36969252 127.99402404 1.36969252 127.99402404 1.3719368 129.46472645 C0.93036845 132.47463716 0.13140526 133.84921319 -2 136 C-7.96021765 136.87485178 -12.46108176 134.95111094 -17.80859375 132.6328125 C-18.64496368 132.28205154 -19.48133362 131.93129059 -20.3430481 131.56990051 C-23.0462381 130.43313829 -25.74174978 129.27927957 -28.4375 128.125 C-30.28782482 127.34328539 -32.13865713 126.56277096 -33.98999023 125.78344727 C-37.64664588 124.24238975 -41.30058189 122.6951666 -44.95214844 121.14208984 C-51.47371191 118.37032572 -58.01718137 115.65260274 -64.5625 112.9375 C-66.4390128 112.15545335 -68.31534203 111.37296591 -70.19140625 110.58984375 C-70.93592041 110.27909912 -71.68043457 109.96835449 -72.44750977 109.64819336 C-72.95983154 109.43428955 -73.47215332 109.22038574 -74 109 C-71.41849054 106.33538265 -68.6763844 104.30674917 -65.625 102.1875 C-61.34888644 99.12342393 -58.07933396 96.24735718 -55 92 C-51.10982879 92.65304882 -47.69556088 93.80538816 -44.04296875 95.28515625 C-42.93115234 95.73310547 -41.81933594 96.18105469 -40.67382812 96.64257812 C-39.52333984 97.11115234 -38.37285156 97.57972656 -37.1875 98.0625 C-36.01767578 98.53494141 -34.84785156 99.00738281 -33.64257812 99.49414062 C-30.76012457 100.65888716 -27.87936035 101.82763234 -25 103 C-25.01665459 101.38840248 -25.01665459 101.38840248 -25.03364563 99.74424744 C-25.13511045 89.6070985 -25.21000807 79.47005292 -25.25906086 69.33251095 C-25.28512758 64.12095371 -25.32047249 58.9098072 -25.37719727 53.69848633 C-25.43162094 48.66694172 -25.46144254 43.63579158 -25.47438622 38.6039753 C-25.48360748 36.68663895 -25.50161478 34.7693236 -25.52865028 32.85215569 C-25.56507867 30.16130207 -25.56993966 27.47206735 -25.56762695 24.78100586 C-25.58560333 23.99265854 -25.60357971 23.20431122 -25.62210083 22.39207458 C-25.56909129 16.67216993 -23.91303145 13.17309516 -20 9 C-17.24609375 6.85546875 -17.24609375 6.85546875 -14.4375 5.1875 C-13.04337891 4.34251953 -13.04337891 4.34251953 -11.62109375 3.48046875 C-4.7738214 -0.3870666 -4.7738214 -0.3870666 0 0 Z " fill="#EC3F79" transform="translate(179,34)"/>
</svg>
